<?xml version="1.0" standalone="no"?><svg xmlns="http://www.w3.org/2000/svg" viewBox="0 0 1440 320"><path fill="#050038" fill-opacity="1" d="M0,128L30,138.7C60,149,120,171,180,181.3C240,192,300,192,360,181.3C420,171,480,149,540,133.3C600,117,660,107,720,117.3C780,128,840,160,900,149.3C960,139,1020,85,1080,90.7C1140,96,1200,160,1260,192C1320,224,1380,224,1410,224L1440,224L1440,320L1410,320C1380,320,1320,320,1260,320C1200,320,1140,320,1080,320C1020,320,960,320,900,320C840,320,780,320,720,320C660,320,600,320,540,320C480,320,420,320,360,320C300,320,240,320,180,320C120,320,60,320,30,320L0,320Z"></path></svg>